<svg xmlns="http://www.w3.org/2000/svg" width="795" height="220" fill="none"><path fill="#206E55" d="M780.175 166.843c-13.06 0-23.144-3.726-30.252-11.178-6.944-7.452-10.415-17.967-10.415-31.547V53.573h-24.301V31.465h4.959c5.952 0 10.663-1.821 14.135-5.464 3.471-3.643 5.207-8.446 5.207-14.407V.664h23.061v30.801h30.004v22.108h-30.004v69.8c0 4.471.661 8.363 1.984 11.675 1.488 3.312 3.885 5.962 7.191 7.949 3.306 1.821 7.687 2.732 13.142 2.732 1.157 0 2.562-.083 4.216-.248 1.818-.166 3.471-.331 4.959-.497v20.369c-2.149.496-4.546.828-7.191.993-2.645.331-4.877.497-6.695.497zm-133.095 1.49c-13.39 0-25.045-3.312-34.964-9.936-9.918-6.624-16.944-15.566-21.077-26.827l18.35-8.942c3.802 7.948 9.009 14.241 15.622 18.878 6.612 4.637 13.969 6.955 22.069 6.955 7.274 0 13.307-1.739 18.101-5.216 4.795-3.478 7.192-8.032 7.192-13.662 0-3.975-1.158-7.121-3.472-9.439-2.149-2.484-4.794-4.389-7.935-5.714-3.141-1.49-6.034-2.566-8.679-3.229l-20.085-5.713c-12.068-3.478-20.912-8.445-26.533-14.904-5.455-6.458-8.183-13.993-8.183-22.604 0-7.949 1.984-14.821 5.951-20.617 4.133-5.962 9.671-10.599 16.614-13.91 7.109-3.313 15.044-4.969 23.805-4.969 11.737 0 22.235 2.981 31.492 8.943 9.423 5.961 16.118 14.324 20.086 25.088l-18.846 8.694c-2.976-6.955-7.439-12.42-13.39-16.394-5.952-4.14-12.647-6.21-20.086-6.21-6.777 0-12.15 1.739-16.118 5.216-3.967 3.312-5.951 7.535-5.951 12.668 0 3.81.992 6.956 2.976 9.44 1.984 2.318 4.381 4.14 7.191 5.464a99.249 99.249 0 0 0 8.183 2.981l21.821 6.459c10.911 3.146 19.341 8.031 25.293 14.655 6.116 6.624 9.174 14.573 9.174 23.846 0 7.452-2.066 14.159-6.199 20.121-4.133 5.961-9.836 10.598-17.109 13.91-7.274 3.312-15.705 4.968-25.293 4.968zm-144.336-.012c-9.588 0-18.267-2.236-26.037-6.707-7.604-4.471-13.555-10.681-17.854-18.63-4.132-8.114-6.199-17.388-6.199-27.82v-83.71h23.061v81.226c0 6.624 1.323 12.42 3.968 17.388 2.81 4.968 6.612 8.859 11.406 11.674 4.96 2.815 10.58 4.223 16.862 4.223 6.282 0 11.82-1.408 16.614-4.223 4.959-2.815 8.762-6.872 11.407-12.171 2.81-5.299 4.215-11.592 4.215-18.879V31.453h23.309V165.34h-22.565v-26.082l3.719 2.236c-3.141 8.445-8.513 15.069-16.118 19.872-7.439 4.637-16.035 6.955-25.788 6.955zM355.654 220c-9.423 0-18.185-1.49-26.285-4.471-7.935-2.981-14.795-7.121-20.581-12.42-5.621-5.134-9.919-11.178-12.895-18.133l21.574-9.936c2.314 6.293 6.695 11.592 13.142 15.897 6.612 4.472 14.878 6.707 24.797 6.707 7.604 0 14.465-1.49 20.581-4.471 6.282-2.815 11.241-7.121 14.878-12.917 3.637-5.63 5.455-12.503 5.455-20.617v-30.056l4.216 4.471c-4.629 9.108-11.324 16.063-20.085 20.865-8.597 4.803-18.102 7.204-28.517 7.204-12.563 0-23.805-2.898-33.723-8.694-9.919-5.961-17.689-13.993-23.309-24.095-5.621-10.267-8.431-21.61-8.431-34.03 0-12.586 2.81-23.93 8.431-34.031 5.62-10.102 13.307-18.05 23.061-23.846 9.918-5.962 21.16-8.943 33.723-8.943 10.415 0 19.838 2.402 28.269 7.204 8.596 4.637 15.456 11.095 20.581 19.375l-3.472 6.21V31.465h22.565V159.64c0 11.592-2.727 21.942-8.182 31.05-5.456 9.108-13.06 16.229-22.814 21.362-9.588 5.299-20.581 7.949-32.979 7.949zm-1.736-80.233c7.935 0 15.043-1.987 21.325-5.961 6.447-3.975 11.572-9.274 15.374-15.898 3.802-6.79 5.703-14.324 5.703-22.604 0-8.115-1.901-15.567-5.703-22.356-3.802-6.79-8.927-12.172-15.374-16.146-6.282-3.974-13.39-5.962-21.325-5.962-8.1 0-15.457 1.987-22.069 5.962-6.613 3.974-11.82 9.356-15.622 16.146-3.637 6.624-5.455 14.076-5.455 22.356 0 8.28 1.818 15.814 5.455 22.604 3.802 6.624 8.927 11.923 15.374 15.898 6.612 3.974 14.051 5.961 22.317 5.961zm-158.471 28.554c-9.588 0-18.267-2.236-26.037-6.707-7.604-4.471-13.555-10.681-17.853-18.63-4.133-8.114-6.2-17.388-6.2-27.82v-83.71h23.061v81.226c0 6.624 1.323 12.42 3.968 17.388 2.81 4.968 6.612 8.859 11.406 11.674 4.96 2.815 10.58 4.223 16.862 4.223 6.282 0 11.82-1.408 16.614-4.223 4.959-2.815 8.762-6.872 11.407-12.171 2.81-5.299 4.215-11.592 4.215-18.879V31.453h23.309V165.34h-22.565v-26.082l3.72 2.236c-3.141 8.445-8.514 15.069-16.118 19.872-7.439 4.637-16.036 6.955-25.789 6.955zm-150.813.012c-8.761 0-16.531-1.573-23.309-4.72-6.612-3.312-11.82-7.783-15.622-13.413C1.901 144.404 0 137.78 0 130.328c0-7.121 1.488-13.496 4.463-19.127 3.141-5.796 7.935-10.681 14.383-14.655 6.612-3.975 14.878-6.79 24.796-8.446l49.594-8.197v19.375L48.85 106.73c-8.596 1.49-14.878 4.223-18.846 8.197-3.802 3.975-5.703 8.86-5.703 14.656 0 5.465 2.149 10.019 6.447 13.662 4.463 3.643 10.001 5.465 16.614 5.465 8.43 0 15.704-1.739 21.821-5.217 6.282-3.643 11.159-8.528 14.63-14.655 3.637-6.128 5.456-12.917 5.456-20.369v-34.03c0-7.287-2.728-13.166-8.184-17.637-5.29-4.637-12.315-6.955-21.077-6.955-7.604 0-14.382 1.987-20.333 5.961-5.786 3.81-10.084 8.943-12.894 15.401L6.695 60.776c2.48-6.127 6.447-11.592 11.903-16.394 5.455-4.968 11.82-8.86 19.093-11.675 7.274-2.815 14.878-4.223 22.813-4.223 10.25 0 19.259 1.988 27.029 5.962 7.77 3.809 13.803 9.19 18.101 16.146 4.464 6.79 6.695 14.738 6.695 23.846v90.914H89.764v-25.336l4.216 1.49c-2.81 5.299-6.613 9.936-11.407 13.91-4.794 3.975-10.414 7.121-16.861 9.439-6.448 2.319-13.473 3.478-21.078 3.478z"/></svg>